<svg width="1406" height="262" viewBox="0 0 1406 262" fill="none" xmlns="http://www.w3.org/2000/svg">
<path d="M998.438 64.4727V104.433L1020.59 126.745H1044.87L1067.02 104.433V64.4727H1102.84V110.944L1073.37 143.068L1102.84 181.097V227.568H1067.02V191.457L1044.87 162.192H1020.59L998.438 191.457V227.568H962.621V181.097L992.09 143.068L962.621 110.944V64.4727H998.438Z" fill="#001623"/>
<path d="M1365.28 261.033H1325.62C1349.59 218.409 1361.43 176.081 1361.43 133.753C1361.43 91.4247 1349.59 48.8007 1325.62 6.47266H1365.28C1391.62 47.9127 1405.24 90.8327 1405.24 133.753C1405.24 176.673 1391.62 219.593 1365.28 261.033Z" fill="#BCBEBF"/>
<path d="M1182.47 120.139L1161.75 107.411L1180.1 80.4746L1147.84 80.7706V54.4266L1180.1 54.7226L1161.75 27.7866L1182.47 15.0586L1199.93 43.4746L1217.4 15.0586L1238.12 27.7866L1219.76 54.7226L1252.03 54.4266V80.7706L1219.76 80.4746L1238.12 107.411L1217.4 120.139L1199.93 91.7226L1182.47 120.139Z" fill="#0AD9DC"/>
<path d="M857.691 50.2815V15.3535H898.539V50.2815H857.691ZM799.971 228.474V196.506H858.875V101.786H802.931V69.8175H899.131V196.506H949.155V228.474H799.971Z" fill="#001623"/>
<path d="M631.662 65.377H667.478V75.145L683.758 65.377H747.99L774.63 104.745V228.473H738.814V111.257L730.23 98.529H672.806L667.478 104.745V228.473H631.662V65.377Z" fill="#001623"/>
<path d="M492.84 64.7852H582.16L605.84 94.2252V155.913H500.536V180.225L510.008 194.137H568.84L585.12 177.265L605.84 203.313L581.568 228.473H492.248L466.496 189.993V92.0172L492.84 64.7852ZM500.536 103.225V128.017H574.584V102.929L569.848 96.1212H507.344L500.536 103.225Z" fill="#001623"/>
<path d="M300.373 0.849609H336.189V75.1456L352.173 65.3776H415.813L443.341 104.154V228.474H407.525V110.962L398.941 98.5296H342.109L336.189 104.154V228.474H300.373V0.849609Z" fill="#001623"/>
<path d="M176.169 228.474V101.786H136.209V69.8185H176.169V65.3785C176.169 33.4105 190.969 18.3145 223.529 18.3145H275.921V50.2824H232.705C221.161 50.2824 216.129 55.6104 216.129 65.6745V69.8185H274.737V101.786H216.129V228.474H176.169Z" fill="#001623"/>
<path d="M40.7178 261.033C14.3738 219.593 0.757812 176.673 0.757812 133.753C0.757812 90.8327 14.3738 47.9127 40.7178 6.47266H80.3818C56.4058 48.8007 44.5658 91.4247 44.5658 133.753C44.5658 176.081 56.4058 218.409 80.3818 261.033H40.7178Z" fill="#BCBEBF"/>
</svg>
